<svg width="25" height="25" viewBox="0 0 25 25" fill="none" xmlns="http://www.w3.org/2000/svg">
<path d="M20.833 4.16663H4.16634C3.02051 4.16663 2.09342 5.10413 2.09342 6.24996L2.08301 18.75C2.08301 19.8958 3.02051 20.8333 4.16634 20.8333H20.833C21.9788 20.8333 22.9163 19.8958 22.9163 18.75V6.24996C22.9163 5.10413 21.9788 4.16663 20.833 4.16663ZM20.4163 8.59371L13.0518 13.1979C12.7184 13.4062 12.2809 13.4062 11.9476 13.1979L4.58301 8.59371C4.47856 8.53507 4.38709 8.45586 4.31414 8.36085C4.24119 8.26584 4.18828 8.15702 4.15861 8.04097C4.12893 7.92492 4.12312 7.80406 4.1415 7.6857C4.15989 7.56733 4.20211 7.45393 4.26559 7.35236C4.32908 7.25078 4.41251 7.16314 4.51085 7.09475C4.60918 7.02635 4.72037 6.97862 4.83769 6.95444C4.95501 6.93026 5.07601 6.93013 5.19338 6.95407C5.31074 6.97801 5.42203 7.02551 5.52051 7.09371L12.4997 11.4583L19.4788 7.09371C19.5773 7.02551 19.6886 6.97801 19.806 6.95407C19.9233 6.93013 20.0443 6.93026 20.1617 6.95444C20.279 6.97862 20.3902 7.02635 20.4885 7.09475C20.5868 7.16314 20.6703 7.25078 20.7338 7.35236C20.7972 7.45393 20.8395 7.56733 20.8578 7.6857C20.8762 7.80406 20.8704 7.92492 20.8407 8.04097C20.8111 8.15702 20.7582 8.26584 20.6852 8.36085C20.6123 8.45586 20.5208 8.53507 20.4163 8.59371Z" fill="#3D7BF7"/>
</svg>
