<svg width="25" height="25" viewBox="0 0 25 25" fill="none" xmlns="http://www.w3.org/2000/svg">
<path fill-rule="evenodd" clip-rule="evenodd" d="M17.2421 23.0552C15.7421 23 11.4911 22.4125 7.03899 17.9615C2.58795 13.5094 2.00149 9.25938 1.94524 7.75834C1.86191 5.47084 3.61399 3.24896 5.63795 2.38125C5.88167 2.27601 6.14857 2.23594 6.41246 2.26498C6.67634 2.29401 6.92814 2.39116 7.14316 2.54688C8.80982 3.76146 9.95982 5.59896 10.9473 7.04375C11.1646 7.36118 11.2575 7.74745 11.2083 8.12896C11.1591 8.51047 10.9713 8.86055 10.6807 9.1125L8.64836 10.6219C8.55018 10.6928 8.48106 10.7969 8.45386 10.9149C8.42666 11.0329 8.44321 11.1568 8.50045 11.2635C8.96086 12.1 9.77961 13.3458 10.7171 14.2833C11.6546 15.2208 12.9598 16.0938 13.8546 16.6063C13.9668 16.6692 14.0989 16.6868 14.2236 16.6555C14.3484 16.6241 14.4564 16.5461 14.5254 16.4375L15.8484 14.424C16.0916 14.1009 16.4504 13.8845 16.8496 13.82C17.2488 13.7555 17.6575 13.848 17.99 14.0781C19.4557 15.0927 21.1661 16.2229 22.4182 17.826C22.5865 18.0426 22.6936 18.3004 22.7282 18.5725C22.7629 18.8447 22.7238 19.1211 22.615 19.3729C21.7432 21.4073 19.5369 23.1396 17.2421 23.0552Z" fill="#3D7BF7"/>
</svg>
