<svg width="27" height="27" viewBox="0 0 27 27" fill="none" xmlns="http://www.w3.org/2000/svg">
<path fill-rule="evenodd" clip-rule="evenodd" d="M10.1247 1.6875C10.1247 1.23995 10.3025 0.810725 10.6189 0.494257C10.9354 0.17779 11.3646 0 11.8122 0L15.1872 0C15.6347 0 16.064 0.17779 16.3804 0.494257C16.6969 0.810725 16.8747 1.23995 16.8747 1.6875C16.8747 2.13505 16.6969 2.56428 16.3804 2.88074C16.064 3.19721 15.6347 3.375 15.1872 3.375V3.49312C16.8795 3.73779 18.4985 4.34694 19.9324 5.2785L21.4647 3.74625C21.5805 3.6219 21.7203 3.52217 21.8755 3.45299C22.0308 3.38382 22.1984 3.34663 22.3683 3.34363C22.5382 3.34063 22.707 3.37189 22.8646 3.43554C23.0222 3.4992 23.1654 3.59394 23.2856 3.71412C23.4057 3.8343 23.5005 3.97746 23.5641 4.13505C23.6278 4.29265 23.659 4.46145 23.656 4.63138C23.6531 4.80132 23.6159 4.96891 23.5467 5.12416C23.4775 5.27941 23.3778 5.41913 23.2534 5.535L21.9034 6.885C23.7704 8.77572 24.9453 11.2407 25.2385 13.8816C25.5316 16.5225 24.9258 19.1851 23.5189 21.4392C22.112 23.6933 19.9862 25.4072 17.4849 26.304C14.9837 27.2009 12.2532 27.2282 9.73455 26.3816C7.21589 25.5351 5.05621 23.864 3.60447 21.6385C2.15273 19.4131 1.49372 16.7631 1.73393 14.1169C1.97413 11.4706 3.09952 8.98262 4.92825 7.05491C6.75698 5.1272 9.18225 3.87235 11.8122 3.49312V3.375C11.3646 3.375 10.9354 3.19721 10.6189 2.88074C10.3025 2.56428 10.1247 2.13505 10.1247 1.6875ZM22.7809 15.1875C22.7809 17.649 21.8031 20.0098 20.0625 21.7503C18.3219 23.4909 15.9612 24.4688 13.4997 24.4688C11.0381 24.4688 8.67741 23.4909 6.93684 21.7503C5.19627 20.0098 4.21842 17.649 4.21842 15.1875C4.21842 12.726 5.19627 10.3652 6.93684 8.62467C8.67741 6.88409 11.0381 5.90625 13.4997 5.90625C15.9612 5.90625 18.3219 6.88409 20.0625 8.62467C21.8031 10.3652 22.7809 12.726 22.7809 15.1875ZM14.7653 9.70312C14.7653 9.36746 14.632 9.04554 14.3946 8.80819C14.1573 8.57084 13.8353 8.4375 13.4997 8.4375C13.164 8.4375 12.8421 8.57084 12.6047 8.80819C12.3674 9.04554 12.234 9.36746 12.234 9.70312V15.7106L12.6053 16.0819L16.4089 19.8855C16.5248 20.0098 16.6645 20.1096 16.8198 20.1788C16.975 20.2479 17.1426 20.2851 17.3125 20.2881C17.4825 20.2911 17.6513 20.2599 17.8089 20.1962C17.9665 20.1326 18.1096 20.0378 18.2298 19.9176C18.35 19.7974 18.4447 19.6543 18.5084 19.4967C18.572 19.3391 18.6033 19.1703 18.6003 19.0004C18.5973 18.8304 18.5601 18.6628 18.4909 18.5076C18.4218 18.3523 18.322 18.2126 18.1977 18.0968L14.7653 14.6627V9.70312Z" fill="#F7F8FA"/>
</svg>
